<svg id="Layer_1" data-name="Layer 1" xmlns="http://www.w3.org/2000/svg" xmlns:xlink="http://www.w3.org/1999/xlink" viewBox="0 0 191 191"><defs><style>.cls-1{fill:url(#radial-gradient);}.cls-2{fill:#fff;}.cls-3{stroke:#000;stroke-miterlimit:10;stroke-width:3px;fill:url(#radial-gradient-2);}</style><radialGradient id="radial-gradient" cx="95.5" cy="95.5" r="95.5" gradientUnits="userSpaceOnUse"><stop offset="0" stop-color="#f6e466"/><stop offset="0.28" stop-color="#f6e263"/><stop offset="0.52" stop-color="#f4dd58"/><stop offset="0.74" stop-color="#f2d446"/><stop offset="0.95" stop-color="#f0c72e"/><stop offset="1" stop-color="#efc427"/></radialGradient><radialGradient id="radial-gradient-2" cx="97.32" cy="117.35" r="5.31" xlink:href="#radial-gradient"/></defs><rect class="cls-1" width="191" height="191" rx="40"/><circle class="cls-2" cx="95.5" cy="95.5" r="64.5"/><path d="M111.79,64.89q-5.6-5.51-14.8-5.51a36.14,36.14,0,0,0-8.6,1,100.9,100.9,0,0,0-11.13,4.46v7.77A3.44,3.44,0,0,0,77.92,75a2.15,2.15,0,0,0,1.65.72A2.12,2.12,0,0,0,81.25,75a3.5,3.5,0,0,0,.64-2.37V67.92a43.12,43.12,0,0,1,7.85-3.08A27.15,27.15,0,0,1,96.6,64a16,16,0,0,1,11.66,4.38A14.23,14.23,0,0,1,112.75,79a8.41,8.41,0,0,1-2.48,6.22q-4.41,4.47-16.48,8.93v7.77a3.43,3.43,0,0,0,.66,2.37,2.21,2.21,0,0,0,1.71.72,2.18,2.18,0,0,0,1.66-.72,3.43,3.43,0,0,0,.66-2.37V97.19Q110.7,92,114.05,88a13.91,13.91,0,0,0,3.33-9.17A18.76,18.76,0,0,0,111.79,64.89Z"/><circle class="cls-3" cx="97.32" cy="117.35" r="5.31"/></svg>