<svg id="Layer_1" data-name="Layer 1" xmlns="http://www.w3.org/2000/svg" viewBox="0 0 191 191"><defs><style>.cls-1,.cls-8{fill:#fff;}.cls-1,.cls-4{opacity:0.1;}.cls-2{fill:#f4c97d;}.cls-3{fill:#efb962;}.cls-4{fill:#8c6239;}.cls-5{fill:none;}.cls-6{fill:blue;}.cls-7{fill:red;}.cls-9{fill:#e6e6e6;}.cls-10{fill:#1b1464;}.cls-11{fill:#c1272d;}.cls-12{fill:#dd0a0a;}.cls-13{fill:#8e1720;}</style></defs><path d="M191,40V151a39.62,39.62,0,0,1-7,22.55,38.82,38.82,0,0,1-2.47,3.23A39.9,39.9,0,0,1,151,191H40A40.12,40.12,0,0,1,0,151V40A39.48,39.48,0,0,1,1.91,27.84c.28-.91.61-1.8,1-2.68A40.28,40.28,0,0,1,28.78,1.61,39.63,39.63,0,0,1,40,0H151a39.58,39.58,0,0,1,16.46,3.57h0a40.31,40.31,0,0,1,20.65,21.59c.36.88.69,1.77,1,2.68A39.48,39.48,0,0,1,191,40Z"/><path class="cls-1" d="M181.51,176.78A39.9,39.9,0,0,1,151,191H88.49L64,156.78l-2.2-3.06H129.7Z"/><path class="cls-2" d="M140.53,53.51a2,2,0,0,0-.72-.36h0a2.77,2.77,0,0,0-1.4,0,2.78,2.78,0,0,1,1.4,0,9.2,9.2,0,0,0-.33-2.51c-.7-2.4-2.43-4.1-4.2-4.32a3.65,3.65,0,0,0-1.85.31,5.81,5.81,0,0,0-2.33-3.18,3.68,3.68,0,0,0-2.63-.26h0a3.66,3.66,0,0,0-.44.13,3.73,3.73,0,0,1,.44-.14,5.37,5.37,0,0,0-.52-2.61c-.87-1.53-2.81-1.7-4.61-.89a7.08,7.08,0,0,0-2.74-3.43,4.68,4.68,0,0,0-5.07.63,4.52,4.52,0,0,0-1.21-.63c-2.51-.76-4.88,1.59-6.28,4.33h0c-1.84-1-4,.77-6.06,3,0-3.22-.82-6.3-2.33-7.3s-3.73,0-5.38,1.74a4.52,4.52,0,0,0-3-1.74,4.11,4.11,0,0,0-2.65.82h0c-1.17-2.91-4.09-6.26-6.78-5.12a4.66,4.66,0,0,0-2,2,7,7,0,0,1,1.73,1.23A7.77,7.77,0,0,0,79.77,34a6.74,6.74,0,0,0-5.31-.57c-2.63.95-4.68,4-5.81,7.21h-.48a4.49,4.49,0,0,0-2,.65,7.62,7.62,0,0,0-2.28,2.17,7,7,0,0,1,.93-1.12,4.71,4.71,0,0,0-5,1.17,9.31,9.31,0,0,0-2.31,4.28,2.56,2.56,0,0,0-.83,0c-2.74.52-4.83,4.84-4.2,7.19a2.52,2.52,0,0,0,.86,1.37,4.23,4.23,0,0,0,1.14.69c.15.07.32.13.48.19a23.24,23.24,0,0,0,2.76.62c.26,0,.5.1.74.16.42.1.84.22,1.25.36,5.51,1.82,9.25,6.3,13.09,10.28a39.73,39.73,0,0,0,3.81,3.57C80.85,75.65,86.7,76.28,96,75.56l1.52-.12c4.44-.39,9.62-1,15.73-1.81,1-.13,2-.27,3-.41s1.85-.28,2.73-.41c13-2.14,18.46-5,20.79-7.47A7.36,7.36,0,0,0,141,63.78a6.51,6.51,0,0,0,.63-1.64c.06-.29.13-.6.19-.93C142.19,58.55,142,54.7,140.53,53.51Zm-3.67.41-.25.22h0ZM121.5,46.78l0,0h-.09A.5.5,0,0,0,121.5,46.78ZM124,43.92v0a.19.19,0,0,1,0,.07A.6.6,0,0,0,124,43.92Zm-10.74-2.47V41.3c0,.13,0,.26,0,.39C113.3,41.61,113.28,41.53,113.27,41.45Zm.22,1c0-.07,0-.14-.07-.21a.52.52,0,0,1,0-.11Zm-.23-1.88a3.55,3.55,0,0,1,.12-.65,3.43,3.43,0,0,0-.11.64c0,.07,0,.13,0,.2A1.2,1.2,0,0,0,113.26,40.58Zm-4.19.9.09.14L109,41.4A.2.2,0,0,1,109.07,41.48Zm-42.7,5.78a3,3,0,0,0,.18-.64c0,.11,0,.23,0,.34A2.08,2.08,0,0,1,66.37,47.26Zm.24-1.82a0,0,0,0,1,0,0v.16A1.21,1.21,0,0,1,66.61,45.44Zm1.48,2.11h0s0,0,0,0A.05.05,0,0,0,68.09,47.55Zm25.34-1.17,0,0,0,0Zm3.37,6.09-.11-.08v0Zm10.16-9c0-.09.05-.18.08-.28s0,0,0,0,0,.2-.08.3a1.36,1.36,0,0,1,0,.17C106.94,43.55,107,43.51,107,43.45Zm-.23,1.32a4,4,0,0,0,0,.69,1.53,1.53,0,0,0,.25.86.66.66,0,0,0,.14.15,1.06,1.06,0,0,1-.15-.15,1.57,1.57,0,0,1-.25-.87A5.2,5.2,0,0,1,106.73,44.77Zm-14.39-.29c0-.07,0-.14,0-.21a5.26,5.26,0,0,0,.17.71A3.17,3.17,0,0,1,92.34,44.48Zm-3.71-2.74c0,.06,0,.11-.08.16l-.15.16A3.71,3.71,0,0,0,88.63,41.74Zm-2.39,1.85h0s0,0,0,0S86.24,43.59,86.24,43.59Zm-3.58-4.86.1-.33a1.55,1.55,0,0,1,0,.21l-.06.12a4.2,4.2,0,0,1-.53,1A4.87,4.87,0,0,0,82.66,38.73Zm-4.9.09c0-.2.11-.39.17-.58-.07.27-.15.53-.22.8C77.73,39,77.74,38.89,77.76,38.82Zm-.31,1.36a1.9,1.9,0,0,1,.07-.28,4.63,4.63,0,0,0-.09.49A1.83,1.83,0,0,1,77.45,40.18Zm-7.76.65,0,0-.14-.06Zm-3.62,6.93a1,1,0,0,0,.17-.22,1,1,0,0,1-.16.22h0a.79.79,0,0,1-.28.21h0A1,1,0,0,0,66.07,47.76Zm-8.75,3.48a3.93,3.93,0,0,1-.14-.93A4.53,4.53,0,0,0,57.32,51.24Zm74.89,6.85h0a.48.48,0,0,0,.12,0Z"/><path class="cls-3" d="M141,63.78a7,7,0,0,0-1.16-3.62,2.28,2.28,0,0,0-.38-.38,2.47,2.47,0,0,0-.72-.33,9.54,9.54,0,0,0-.41-2.5c-.1-.29-.21-.58-.33-.85s-.17-.34-.26-.49a6.57,6.57,0,0,0-1.08-1.47h0a5,5,0,0,0-1.15-.89,3.76,3.76,0,0,0-1.5-.48,3.53,3.53,0,0,0-1.85.36,9.41,9.41,0,0,0-.71-1.42A4.5,4.5,0,0,0,129.66,50a3.42,3.42,0,0,0-1.12-.32,4.06,4.06,0,0,0-1.5.15,5.23,5.23,0,0,0-.6-2.6.43.43,0,0,1,0-.07,2.58,2.58,0,0,0-1.31-1,4.27,4.27,0,0,0-3.29.35,10.58,10.58,0,0,0-.68-1.24,6.69,6.69,0,0,0-1.57-1.72c-.2-.15-.4-.27-.59-.39a4.51,4.51,0,0,0-4.6.48c-.15.11-.31.2-.45.32a4.42,4.42,0,0,0-1.24-.6,3.46,3.46,0,0,0-2.52.3,6.57,6.57,0,0,0-2,1.69h0c-.18.23-.37.47-.55.72l-.32.5c-.26.42-.5.86-.72,1.31l0,0c-1.14-.56-2.38-.11-3.62.85A15.58,15.58,0,0,0,100.56,51a17.65,17.65,0,0,0-.21-2.08,12.72,12.72,0,0,0-.91-3.31A4.05,4.05,0,0,0,98,43.82a1.92,1.92,0,0,0-.75-.29,2.32,2.32,0,0,0-.59-.06,5.33,5.33,0,0,0-3.33,1.59,7.76,7.76,0,0,0-.58.57.35.35,0,0,0-.07.09h0c-.13.14-.24.28-.36.43a3.65,3.65,0,0,1,.35-.43,4.66,4.66,0,0,0-3.05-1.65h0A4.06,4.06,0,0,0,87,45h0c-.18-.39-.39-.81-.62-1.2a1.88,1.88,0,0,0-.12-.18s0,0,0,0a9.94,9.94,0,0,0-2.44-2.78A3.63,3.63,0,0,0,80,40.06a3.35,3.35,0,0,0-1.19.93,5.63,5.63,0,0,0-.77,1.13,6.08,6.08,0,0,0-7.31.89,9.79,9.79,0,0,0-1.66,2c-.16.25-.32.49-.47.75a.56.56,0,0,0,0,.08,16.29,16.29,0,0,0-.89,1.83c-.19.48-.38,1-.53,1.46h-.49a4,4,0,0,0-1.86.64,6.07,6.07,0,0,0-1.44,1.16A3.34,3.34,0,0,0,62,50.63a4.67,4.67,0,0,0-1.21.18,5.35,5.35,0,0,0-2.4,1.41c0,.06-.1.1-.13.15a7.12,7.12,0,0,0-1.06,1.54,9.85,9.85,0,0,0-1,2.67,3.36,3.36,0,0,0-.84.06,3,3,0,0,0-.94.37,3.47,3.47,0,0,0-.76.53,7.74,7.74,0,0,0-2.41,5.61,2.91,2.91,0,0,0,.13.8,2.7,2.7,0,0,0,.76,1.21c1.19,1.1,3.27,1.28,4.58,1.49,7.32,1.19,11.78,7,16.67,11.55h0a31.87,31.87,0,0,0,2.63,2.24c2.75,2.07,6,3,10.41,3.2A61.72,61.72,0,0,0,96,83.16c4.31-.48,9.35-1.26,15.29-2.19l1.48-.23c2.06-.32,4-.66,5.72-1,19.67-3.86,21.72-8.9,22.23-11.37.05-.27.1-.55.14-.86A18.36,18.36,0,0,0,141,63.78ZM94.38,48.27a1.83,1.83,0,0,0,.14.28v0A2,2,0,0,1,94.38,48.27Zm.16.35.14.35.15.4c-.06-.14-.11-.27-.16-.4S94.59,48.74,94.54,48.62ZM72,57.34a1.06,1.06,0,0,1-.21.11s0,0,0,0Zm-7.23-1a1,1,0,0,1-.37.26A1.18,1.18,0,0,0,64.81,56.35ZM61.62,55a.07.07,0,0,0,0,0,1.31,1.31,0,0,0,.12.33l-.07-.13a.53.53,0,0,1-.06-.19Zm-2.17,6.83a3.18,3.18,0,0,1-.82.1A3.18,3.18,0,0,0,59.45,61.78ZM56,59.32s0,.09,0,.13a.15.15,0,0,1,0-.08S56,59.33,56,59.32Zm68.59-3.38a1.08,1.08,0,0,1-.19,0l.19,0,.09,0Zm11.57,9.68a.46.46,0,0,0,.26,0h.06s0,0-.06,0A.59.59,0,0,1,136.18,65.62Zm.36-5.8a.15.15,0,0,0,.06,0c.2-.09.38-.16.58-.23C137,59.63,136.75,59.72,136.54,59.82Zm2.06,1.46a.49.49,0,0,0,0,.12.74.74,0,0,0,0,.14A2.38,2.38,0,0,0,138.6,61.28ZM116.51,47.09a1.28,1.28,0,0,1,.11.27c0-.12-.1-.23-.15-.35A.2.2,0,0,1,116.51,47.09Zm-11,3.67a7.33,7.33,0,0,1,.19-.74c-.07.26-.14.51-.18.75s-.12.59-.16,1A6.13,6.13,0,0,1,105.55,50.76Zm-5.09,3.52a.76.76,0,0,1,0,.15c0,.11,0,.21,0,.32C100.43,54.59,100.44,54.44,100.46,54.28ZM80.6,44.1l.05.09L80.53,44A.46.46,0,0,1,80.6,44.1Zm-4.46,3.33c-.27,1.2-.37,2.36,0,2.81h0C75.76,49.78,75.86,48.63,76.14,47.43Zm-8.55,1.71.09,0-.26,0Z"/><path class="cls-2" d="M130,61c-.12,2.31-3,3.23-4.55,3.88a17.82,17.82,0,0,0-6.23,4.52h0c-3.71,4-6,9.39-9.3,13.42C107,86.35,102.68,88.2,96,89.42c-5.49,1-12.55,1.58-21.66,2.33h0c-10.47.85-17.22.49-21.63-.41L49.8,70.51l-.37-2.75a4.46,4.46,0,0,1,1.22-1.89,3.59,3.59,0,0,1,2.51-.78,5.4,5.4,0,0,1,0-2.68c.54-1.68,2.41-2.24,4.32-1.82a7.2,7.2,0,0,1,2-3.9,4.65,4.65,0,0,1,5.1-.43,4.13,4.13,0,0,1,1.06-.87,3.45,3.45,0,0,1,1-.35c2.07-.39,4.38,1.25,6,3.3l0,0a2.79,2.79,0,0,1,2.66-.41A12.52,12.52,0,0,1,79.18,60,15.84,15.84,0,0,1,79,54.67a4.3,4.3,0,0,1,1-2.29c1.24-1.24,3.64-.81,5.61.61a4.59,4.59,0,0,1,2.6-2.33,4.1,4.1,0,0,1,2.77.26h0c.55-3.09,2.71-7,5.58-6.4A4.52,4.52,0,0,1,98.93,46,6.79,6.79,0,0,1,104,44.4c2.76.39,5.42,3,7.16,5.87a2.31,2.31,0,0,1,.47-.12,5.39,5.39,0,0,1,3.63,1,4.73,4.73,0,0,1,5.17.1A9.51,9.51,0,0,1,123.59,55a2.83,2.83,0,0,1,.82-.15,2.9,2.9,0,0,1,1,.14C127.83,55.61,130.1,58.83,130,61Z"/><path class="cls-4" d="M97.53,75.44a53.22,53.22,0,0,1-12.16,6C81,81.28,77.7,80.33,75,78.27c-6-4.59-10.71-12.39-19.31-13.79C54,64.21,51,64,50.31,61.77c-.53-1.81.51-4.83,2.28-6.4a1.9,1.9,0,0,1-.15-.42c-.63-2.36,1.45-6.68,4.2-7.19a3.28,3.28,0,0,1,.83,0,9.4,9.4,0,0,1,2.31-4.28,4.71,4.71,0,0,1,5-1.17,6.87,6.87,0,0,1,1.36-1.05c.45.75.88,1.56,1.34,2.41.1.17.19.35.29.53.86,1.62,1.81,3.37,2.93,5.17A30.62,30.62,0,0,0,81.71,60c11.57,6.57,21.83,2.73,22.85,6.53C105.15,68.73,102.33,72.16,97.53,75.44Z"/><path class="cls-5" d="M72.7,68.07a16,16,0,0,1-.11-1.71v-.14a15.9,15.9,0,0,0,.13,2Z"/><polygon class="cls-6" points="49.17 65.8 49.17 65.74 49.15 65.74 49.17 65.8"/><polygon class="cls-6" points="142.66 65.74 142.65 65.74 142.65 65.78 142.66 65.74"/><path class="cls-7" d="M77.79,142.17c-4.9-4.43-8.17-9.81-12.4-16.86A114.23,114.23,0,0,1,53.64,98.5l-1-7.16L49.8,70.51l-.37-2.75-.26-2v-.07c.22-6.92,5.32-12.45,11.59-12.45A10.57,10.57,0,0,1,66.59,55a13.15,13.15,0,0,1,5.77,10.7h.24a3.93,3.93,0,0,0,0,.48,1.41,1.41,0,0,0,0,.2,12.82,12.82,0,0,0,.11,1.65v.12l0,.06v0l1.61,23.45Z"/><path class="cls-8" d="M95.8,66.22h0c0-.15,0-.32,0-.48-.22-6.92-5.32-12.45-11.6-12.45S72.82,58.82,72.6,65.74a3.93,3.93,0,0,0,0,.48v.14s0-.09,0-.14l.13,2a.49.49,0,0,0,0-.12v.12l0,.06v0l5.06,73.87h0a38.71,38.71,0,0,0,5,3.81A49,49,0,0,0,96,151.8a2.06,2.06,0,0,0,0-.35l0-85.23Z"/><polygon class="cls-9" points="96.01 66.22 96.01 66.22 95.81 66.22 95.81 66.22 96.01 66.22"/><path class="cls-10" d="M72.59,66.36a16,16,0,0,0,.11,1.71Z"/><path class="cls-10" d="M72.71,68.19l-.13-2s0,.1,0,.14l.11,1.71A.49.49,0,0,1,72.71,68.19Z"/><path class="cls-7" d="M113.56,151.17l5.88-84.95c0-.15,0-.32,0-.48h-.23c-.22-6.92-5.32-12.45-11.6-12.45S96.25,58.82,96,65.74A2.44,2.44,0,0,0,96,66c0,.07,0,.14,0,.21h0l0,85.23a2.17,2.17,0,0,0,0,.36,55.68,55.68,0,0,0,16.78,2,4,4,0,0,0,.74-2.07l0-.29v-.07A1.55,1.55,0,0,1,113.56,151.17Z"/><path class="cls-11" d="M96,66.22h0c0-.07,0-.14,0-.21s0,.14,0,.21Z"/><path class="cls-8" d="M142.65,65.79v-.05h0c-.22-6.92-5.32-12.45-11.6-12.45s-11.37,5.53-11.6,12.45c0,.16,0,.33,0,.48l-5.89,85.16v.07a4,4,0,0,0,.7,2.29,48.86,48.86,0,0,0,15.34-3.4c.55-.22,1.07-.44,1.57-.67L142,70.51v0l.64-4.68v0Z"/><rect class="cls-9" x="142.65" y="65.74" height="0.04" transform="translate(38.47 183.32) rotate(-73.2)"/><path class="cls-9" d="M113.55,151.38l5.89-85.16-5.88,84.95A1.55,1.55,0,0,0,113.55,151.38Z"/><path class="cls-12" d="M77.79,142.18h0c-4.9-4.43-8.17-9.81-12.4-16.86A114.23,114.23,0,0,1,53.64,98.5L61,152a4.14,4.14,0,0,0,4.1,3.57h9.19a4.14,4.14,0,0,0,4.14-4.14v-.07Z"/><path class="cls-9" d="M77.79,142.18l.62,9a1.55,1.55,0,0,1,0,.21v.07l0,.29a4.16,4.16,0,0,0,4.14,3.85h9.27A4.14,4.14,0,0,0,96,151.8,49,49,0,0,1,82.8,146,38.71,38.71,0,0,1,77.79,142.18Z"/><path class="cls-13" d="M78.41,151.17l-.62-9,.63,9.2A1.55,1.55,0,0,0,78.41,151.17Z"/><path class="cls-12" d="M96,151.81a4.12,4.12,0,0,0,4.11,3.78h9.27a4.11,4.11,0,0,0,3.4-1.78A55.68,55.68,0,0,1,96,151.81Z"/><path class="cls-9" d="M114.25,153.74a4.12,4.12,0,0,0,3.45,1.85h9a4.14,4.14,0,0,0,4.1-3.57l.33-2.35c-.5.23-1,.45-1.57.67A48.86,48.86,0,0,1,114.25,153.74Z"/></svg>